<svg xmlns="http://www.w3.org/2000/svg" viewBox="0 0 216.08 235.24"><defs><style>.cls-1{fill:#c4c4c4;}</style></defs><title>calendar</title><g id="Layer_2" data-name="Layer 2"><g id="Layer_1-2" data-name="Layer 1"><g id="ckkkER.tif"><path class="cls-1" d="M216.08,49.24V219.85c-.14.65-.27,1.3-.42,2-1.78,8.23-8.28,13.42-16.9,13.43q-33,0-65.9,0H17.34c-7.47,0-12.69-3.55-15.87-10.14A29.76,29.76,0,0,1,0,219.85V49.51c.07-.29.17-.59.22-.89,1.4-9.06,8-14.71,17.12-14.73,4.79,0,9.59,0,14.39,0h1.59V32.3c0-4.13-.07-8.25,0-12.37A21.06,21.06,0,0,1,49.19.63C50.36.36,51.56.21,52.74,0h11a9.58,9.58,0,0,0,1,.24C74,1.19,82,9,82.85,18.12c.42,4.67.21,9.4.28,14.1,0,.52,0,1,0,1.57h49.8V32.25c0-3.86,0-7.71,0-11.57A21,21,0,0,1,146.22,1.51,47.38,47.38,0,0,1,152.3,0h11c.74.13,1.49.24,2.23.38A20.78,20.78,0,0,1,182.74,20.7c.06,3.9,0,7.79,0,11.69,0,.48,0,1,.06,1.49h1.63c5.06,0,10.12,0,15.18,0a16.81,16.81,0,0,1,15.8,12.33C215.7,47.23,215.87,48.24,216.08,49.24Zm-199.33,35V218.57H199.29V84.28ZM66.49,40.43c0-6.28,0-12.56,0-18.84,0-2.69-1.41-4.24-3.94-4.31q-4.3-.11-8.61,0c-2.43.06-3.76,1.42-4,3.85a11.92,11.92,0,0,0-.05,1.34V58.12c0,.45,0,.9.05,1.35.23,2.46,1.53,3.74,4,3.8s5.11,0,7.67,0c3.59,0,4.88-1.29,4.88-4.85Q66.51,49.43,66.49,40.43Zm83.09-.23v5.25c0,4.57,0,9.14,0,13.72,0,2.37,1.33,4,3.43,4,3.18.11,6.37.11,9.55,0a3.51,3.51,0,0,0,3.51-3.4,19.5,19.5,0,0,0,.09-2V26.87c0-1.75,0-3.5,0-5.25-.09-3-1.52-4.34-4.46-4.36-2.33,0-4.67,0-7,0-3.82,0-5.11,1.27-5.12,5Z"/></g></g></g></svg>