<svg xmlns="http://www.w3.org/2000/svg" viewBox="0 0 64.57 49.55"><defs><style>.cls-1{fill:#fff;}</style></defs><title>filter</title><g id="Layer_2" data-name="Layer 2"><g id="Layer_1-2" data-name="Layer 1"><path class="cls-1" d="M17.56,8.64c4.76,0,9.53,0,14.29,0A1,1,0,0,0,33,7.89a11.7,11.7,0,0,1,22.12,0,1,1,0,0,0,1.18.78c1.74,0,3.49,0,5.23,0a2.93,2.93,0,1,1,0,5.86c-1.8,0-3.61,0-5.41,0a.79.79,0,0,0-.9.64,11.72,11.72,0,0,1-22.23,0c-.23-.65-.58-.65-1.09-.65H3.23c-2.35,0-3.85-2-3-4.05A2.9,2.9,0,0,1,3.17,8.64Zm20.59,2.9a5.87,5.87,0,1,0,5.93-5.83A5.87,5.87,0,0,0,38.15,11.54Z"/><path class="cls-1" d="M47,40.91c-4.76,0-9.53,0-14.29,0a1,1,0,0,0-1.1.76,11.71,11.71,0,0,1-22.13,0,1,1,0,0,0-1.17-.8c-1.74,0-3.49,0-5.23,0a2.93,2.93,0,1,1,0-5.86c1.81,0,3.61,0,5.41,0a.78.78,0,0,0,.91-.63,11.72,11.72,0,0,1,22.23,0c.22.64.56.66,1.08.66H61.42a2.94,2.94,0,1,1,0,5.87ZM20.53,43.84a5.87,5.87,0,1,0-5.84-5.91A5.87,5.87,0,0,0,20.53,43.84Z"/></g></g></svg>