<svg xmlns="http://www.w3.org/2000/svg" viewBox="0 0 213.05 56.44"><defs><style>.cls-1{fill:#bc3eff;}</style></defs><title>label_purple</title><g id="Layer_2" data-name="Layer 2"><g id="Layer_1-2" data-name="Layer 1"><g id="eNQ8SK"><path d="M156.08,56.43c-9.74,0-139.47,0-149.2,0C2.29,56.41,0,54.11,0,49.51Q0,28.18,0,6.84C0,2.38,2.32,0,6.74,0,26.29,0,165.83,0,185.37,0a10.09,10.09,0,0,1,8.07,3.65c5.8,6.66,11.66,13.27,17.45,19.94,2.84,3.26,2.88,5.93.08,9.16-5.88,6.79-11.84,13.52-17.75,20.27a9.69,9.69,0,0,1-7.72,3.42C175.69,56.4,165.89,56.43,156.08,56.43Zm0-3.84c9.51,0,19,0,28.53,0a7.12,7.12,0,0,0,5.8-2.37c5.75-6.61,11.48-13.24,17.33-19.76,1.56-1.74,1.38-2.94-.09-4.59-5.78-6.48-11.47-13-17.16-19.59a7.16,7.16,0,0,0-5.78-2.44H7.42c-2.86,0-3.37.54-3.37,3.42q0,20.9,0,41.79c0,3,.47,3.51,3.5,3.51Z"/><path class="cls-1" d="M156.08,52.59H7.55c-3,0-3.5-.48-3.5-3.51q0-20.89,0-41.79c0-2.88.51-3.42,3.37-3.42H184.71a7.16,7.16,0,0,1,5.78,2.44c5.69,6.56,11.38,13.11,17.16,19.59,1.47,1.65,1.65,2.85.09,4.59-5.85,6.52-11.58,13.15-17.33,19.76a7.12,7.12,0,0,1-5.8,2.37C175.1,52.57,165.59,52.59,156.08,52.59Zm42.67-24.44a8,8,0,1,0-15.95.25,8,8,0,0,0,15.95-.25Z"/><path d="M198.75,28.15a8,8,0,0,1-15.95.25,8,8,0,1,1,15.95-.25Zm-7.87,4.17a4.29,4.29,0,0,0,4-4.1,4.25,4.25,0,0,0-4.23-4.09,4.3,4.3,0,0,0-4,4.09A4.29,4.29,0,0,0,190.88,32.32Z"/></g></g></g></svg>