<svg xmlns="http://www.w3.org/2000/svg" viewBox="0 0 333.92 301.03"><title>Asset 30</title><g id="Layer_2" data-name="Layer 2"><g id="Layer_1-2" data-name="Layer 1"><path d="M9.06,301h315.8c12.07,0,12.09-18.75,0-18.75H9.06C-3,282.28-3,301,9.06,301Z"/><path d="M297.5,49c-.78,2.76-1.4,5.58-2.37,8.27-2.76,7.68-7.68,13.91-13.39,19.6Q223.66,134.76,165.6,192.69q-21.54,21.47-43.22,42.79a18.77,18.77,0,0,1-7,4.27c-22.31,7.31-44.7,14.4-67,21.65-3.47,1.13-6.58,1.08-9.3-1.48-2.88-2.72-3.09-6.06-2-9.71q7.7-25.4,15.31-50.83c1.81-6,3.36-12.17,5.42-18.13a19.62,19.62,0,0,1,4.29-7.3Q140.78,94.8,219.67,15.8c7.56-7.58,16.23-13,26.89-15L251.15,0h3.69c2.28.44,4.59.76,6.83,1.35,13.61,3.59,23.14,12.51,30.17,24.14,2.65,4.38,3.82,9.66,5.66,14.54ZM121.3,213.18c.76-.72,1.27-1.18,1.77-1.67q13.55-13.44,27.09-26.88,52.26-52,104.53-103.93A3.23,3.23,0,0,0,255.6,77c-5.45-17.9-17.18-29.74-34.61-36.16a3.06,3.06,0,0,0-3.71.9c-4.51,4.66-9.12,9.24-13.71,13.84Q148,111.3,92.44,167c-3,3-6.11,5.75-9.41,8.84C101.67,190.28,107.65,200,121.3,213.18Zm-13.65,11.58C95.19,207.64,83,200,72.28,190.28c-5.38,17.08-10.77,34.17-16.35,51.86ZM269.38,65.83c4.75-4.57,8.67-9.42,10.68-15.57a18.15,18.15,0,0,0-1.08-14,39.3,39.3,0,0,0-11.15-13.44c-5.34-4.26-11.27-6.7-18.27-5.48S237,22,231.93,27.11C249.39,35.39,262,47.92,269.38,65.83Z"/></g></g></svg>