<svg xmlns="http://www.w3.org/2000/svg" viewBox="0 0 102.21 102.61"><title>rename</title><g id="Layer_2" data-name="Layer 2"><g id="Layer_1-2" data-name="Layer 1"><path d="M102.21,19.17c-.31,1.09-.55,2.19-.93,3.24A20.88,20.88,0,0,1,96,30.09L50.57,75.43C45,81,39.33,86.64,33.65,92.19a7.4,7.4,0,0,1-2.75,1.67c-8.73,2.86-17.5,5.63-26.24,8.47A3.34,3.34,0,0,1,1,101.75,3.43,3.43,0,0,1,.24,98q3-9.95,6-19.9C7,75.69,7.55,73.29,8.36,71A7.7,7.7,0,0,1,10,68.1q30.81-31,61.7-61.91A19.66,19.66,0,0,1,82.27.32L84.07,0h1.44c.89.17,1.8.3,2.67.53C93.51,1.93,97.24,5.42,100,10a33.6,33.6,0,0,1,2.22,5.69Zm-69,64.28c.3-.28.5-.46.69-.65L44.53,72.28Q65,51.93,85.45,31.59a1.28,1.28,0,0,0,.36-1.46A20.94,20.94,0,0,0,72.26,16a1.19,1.19,0,0,0-1.45.35C69,18.16,67.23,20,65.44,21.75Q43.69,43.58,21.93,65.39c-1.16,1.16-2.39,2.25-3.68,3.46A28.58,28.58,0,0,1,33.23,83.45ZM27.89,88C26.73,82.36,19.2,75,14,74.49l-6.4,20.3ZM91.2,25.77a14.85,14.85,0,0,0,4.18-6.1A7.09,7.09,0,0,0,95,14.18a15.35,15.35,0,0,0-4.37-5.26,8.69,8.69,0,0,0-7.15-2.15,12.66,12.66,0,0,0-6.9,3.84A28.17,28.17,0,0,1,91.2,25.77Z"/></g></g></svg>