<svg xmlns="http://www.w3.org/2000/svg" viewBox="0 0 98.91 87.61"><defs><style>.cls-1{fill:#fff;}</style></defs><title>refresh</title><g id="Layer_2" data-name="Layer 2"><g id="Layer_1-2" data-name="Layer 1"><path class="cls-1" d="M19.41,44.25A35.67,35.67,0,0,1,54.66,9c5.78-.1,5.8-9.1,0-9A44.83,44.83,0,0,0,10.41,44.25c-.1,5.79,8.9,5.8,9,0Z"/><path class="cls-1" d="M98.91,44.25A44.84,44.84,0,0,0,54.66,0c-5.8-.1-5.8,8.9,0,9A35.68,35.68,0,0,1,89.91,44.25c.09,5.79,9.1,5.8,9,0Z"/><path class="cls-1" d="M54.66,87.61A44.84,44.84,0,0,0,98.91,43.36c.1-5.8-8.9-5.8-9,0A35.68,35.68,0,0,1,54.66,78.61c-5.79.1-5.81,9.1,0,9Z"/><path class="cls-1" d="M.52,26.88l10,20c2.59,5.18,10.36.63,7.77-4.54l-10-20C5.7,17.16-2.07,21.71.52,26.88Z"/><path class="cls-1" d="M31.82,29.13,12.45,40.31C7.44,43.21,12,51,17,48.08L36.36,36.9c5-2.89.49-10.67-4.54-7.77Z"/></g></g></svg>