<svg xmlns="http://www.w3.org/2000/svg" viewBox="0 0 218 170"><defs><style>.cls-1{fill:none;stroke:#000;stroke-miterlimit:10;stroke-width:9px;}</style></defs><title>restore_2</title><g id="Layer_2" data-name="Layer 2"><g id="Layer_1-2" data-name="Layer 1"><path class="cls-1" d="M4.5,64.5v-20a7,7,0,0,1,7-7h2a12.23,12.23,0,0,0,10.05-6.3l9.9-20.4a12.23,12.23,0,0,1,10-6.3h54A11.42,11.42,0,0,1,107.21,11L114.79,29a11.42,11.42,0,0,0,9.71,6.46h82a7,7,0,0,1,7,7v116a7,7,0,0,1-7,7H11.5a7,7,0,0,1-7-7Z"/><path class="cls-1" d="M109.21,15.73H143.5A12.67,12.67,0,0,1,153.72,22l7,13.55"/><path class="cls-1" d="M144.5,15.5h39.29A12.67,12.67,0,0,1,194,21.72l7,13.55"/><path d="M74.5,99.14a35.68,35.68,0,0,1,35.25-35.25c5.79-.1,5.8-9.1,0-9A44.84,44.84,0,0,0,65.5,99.14c-.1,5.8,8.9,5.8,9,0Z"/><path d="M154,99.14a44.84,44.84,0,0,0-44.25-44.25c-5.79-.1-5.79,8.9,0,9A35.68,35.68,0,0,1,145,99.14c.1,5.79,9.1,5.81,9,0Z"/><path d="M109.75,142.5A44.84,44.84,0,0,0,154,98.25c.1-5.79-8.9-5.79-9,0a35.68,35.68,0,0,1-35.25,35.25c-5.79.1-5.8,9.1,0,9Z"/><path d="M55.61,81.77l10,20c2.59,5.18,10.36.63,7.78-4.54l-10-20C60.8,72.05,53,76.6,55.61,81.77Z"/><path d="M86.91,85,67.55,96.2c-5,2.9-.49,10.68,4.54,7.78L91.45,92.8c5-2.9.49-10.68-4.54-7.78Z"/><path d="M104.52,79.5v22.25c0,5.79,9,5.8,9,0V79.5c0-5.79-9-5.8-9,0Z"/><path d="M128,115,112.26,99.24c-4.1-4.1-10.47,2.26-6.36,6.36l15.75,15.75c4.1,4.1,10.46-2.26,6.36-6.36Z"/></g></g></svg>