<svg xmlns="http://www.w3.org/2000/svg" viewBox="0 0 328.47 361.2"><title>Asset 36</title><g id="Layer_2" data-name="Layer 2"><g id="Layer_1-2" data-name="Layer 1"><path d="M.26,9.38V309.45c0,13.88-.58,27.9,0,41.77v.6a9.51,9.51,0,0,0,9.37,9.38H318.84a9.52,9.52,0,0,0,9.38-9.38V51.75c0-13.88.57-27.9,0-41.78,0-.2,0-.4,0-.59A9.52,9.52,0,0,0,318.84,0H164.24a9.52,9.52,0,0,0-9.38,9.38v195.5c0,12.07,18.75,12.09,18.75,0V9.38l-9.37,9.37h154.6l-9.37-9.37V337.86c0,4.38-.43,9,0,13.36,0,.2,0,.4,0,.6l9.37-9.37H9.63L19,351.82V51.75c0-13.88.57-27.9,0-41.78,0-.2,0-.4,0-.59C19-2.69.26-2.71.26,9.38Z"/><path d="M170.87,211.51l68.81-68.81,9.87-9.88c8.55-8.54-4.71-21.8-13.25-13.25l-68.82,68.81-9.87,9.88c-8.55,8.54,4.71,21.8,13.26,13.25Z"/><path d="M166.31,198.26,97.5,129.44l-9.88-9.87c-8.54-8.55-21.8,4.71-13.26,13.25l68.82,68.82,9.87,9.87c8.54,8.55,21.81-4.71,13.26-13.25Z"/></g></g></svg>