<svg xmlns="http://www.w3.org/2000/svg" viewBox="0 0 87.18 83.25"><defs><style>.cls-1{fill:#ffc23c;}</style></defs><title>star</title><g id="Layer_2" data-name="Layer 2"><g id="Layer_1-2" data-name="Layer 1"><polygon class="cls-1" points="43.59 2.54 56.3 28.29 84.71 32.42 64.15 52.46 69.01 80.76 43.59 67.4 18.17 80.76 23.02 52.46 2.46 32.42 30.88 28.29 43.59 2.54"/><path d="M41.43,3.8l6.79,13.75,4.25,8.61c.6,1.22,1.16,3.24,2.31,4.09s2.94.75,4.26.94l9.83,1.43,15.18,2.21L83,30.65,72,41.35l-7.11,6.94c-1,.94-2.71,2.13-3.11,3.51s.32,3.18.53,4.39L64,66.31l2.59,15.12,3.68-2.83L56.69,71.47,47.9,66.84c-1.19-.62-2.89-1.93-4.31-1.94s-2.92,1.21-4,1.79l-9.09,4.78L16.91,78.6l3.67,2.83,2.59-15.12,1.68-9.79c.23-1.3,1-3.39.59-4.72s-2-2.4-2.88-3.28l-7.35-7.17-11-10.7-1.1,4.18L18.3,32.62l9.51-1.38c1.38-.2,3.42-.11,4.58-1s1.6-2.63,2.17-3.79L39,17.55,45.75,3.8c1.42-2.88-2.9-5.41-4.32-2.53L35.08,14.15l-4.21,8.51a26.23,26.23,0,0,0-1.5,3.06c-.27.8-1.29,1.61.09.71,1.55-1-.06-.34-.69-.34a20.45,20.45,0,0,0-3,.43L16,27.94,1.8,30c-1.92.28-2.33,3-1.11,4.18l20.57,20-.65-2.43L15.76,80.1a2.53,2.53,0,0,0,3.67,2.82L44.85,69.56H42.33L67.74,82.92a2.54,2.54,0,0,0,3.68-2.82L66.56,51.8l-.64,2.43,20.56-20c1.23-1.19.81-3.9-1.1-4.18L71.17,27.94l-9.39-1.36a23,23,0,0,0-3.38-.49c-.41,0-2.52-.55-.68.34,1.32.64.42.28.09-.71A23.65,23.65,0,0,0,56.47,23L52.1,14.15,45.75,1.27C44.32-1.61,40,.92,41.43,3.8Z"/></g></g></svg>