<svg xmlns="http://www.w3.org/2000/svg" viewBox="0 0 223.71 201.44"><defs><style>.cls-1{fill:#ffb700;}.cls-2{stroke:#000;stroke-miterlimit:10;}</style></defs><title>warn</title><g id="Layer_2" data-name="Layer 2"><g id="Layer_1-2" data-name="Layer 1"><path class="cls-1" d="M136.86,17.86c-13.75-23.81-36.25-23.81-50,0l-81,140.28c-13.75,23.81-2.5,43.3,25,43.3h162c27.5,0,38.75-19.49,25-43.3Z"/><path class="cls-2" d="M114.53,65c8.34,0,11.59,3.29,11.59,7.54a84.19,84.19,0,0,1-1.2,12c-2.3,16-4.49,28.4-6.14,46.61h-8.5c-1.79-17.61-3.94-30.6-6.24-46.61a87.65,87.65,0,0,1-1.24-12C102.8,68.37,106.09,65,114.53,65Zm.15,101.54c-6.44,0-11.59-4.69-11.59-11.89a11.67,11.67,0,1,1,23.33,0C126.42,161.83,121.27,166.52,114.68,166.52Z"/></g></g></svg>